# xmcd CD database file
#
# Track frame offsets:
#	150
#	41362
#	77887
#	111565
#	141337
#	165640
#
# Disc length: 2494 seconds
#
# Revision: 0
# Processed by: cddbd v1.4PL0 Copyright (c) Steve Scherf et al.
# Submitted via: CDex 1.50beta10
#
DISCID=4e09bc06
DTITLE=Bob James - Three
DYEAR=1975
DGENRE=Jazz
TTITLE0=One mint julep
TTITLE1=Women of Ireland
TTITLE2=Wetchester lady
TTITLE3=Storm king
TTITLE4=Jamaica farewell
TTITLE5=Look look
EXTD=YEAR: 1975
EXTT0=
EXTT1=
EXTT2=
EXTT3=
EXTT4=
EXTT5=
PLAYORDER=
